<?xml version="1.0" standalone="no"?>
<!DOCTYPE svg PUBLIC "-//W3C//DTD SVG 20010904//EN"
 "http://www.w3.org/TR/2001/REC-SVG-20010904/DTD/svg10.dtd">
<svg version="1.0" xmlns="http://www.w3.org/2000/svg"
 width="1024.000000pt" height="1024.000000pt" viewBox="0 0 1024.000000 1024.000000"
 preserveAspectRatio="xMidYMid meet">

<g transform="translate(0.000000,1024.000000) scale(0.100000,-0.100000)"
fill="#000000" stroke="none">
<path d="M4970 7023 l0 -313 150 0 150 0 0 313 0 312 -150 0 -150 0 0 -312z"/>
<path d="M4098 6957 c-65 -45 -117 -86 -115 -90 1 -5 69 -96 151 -202 l149
-193 37 23 c20 13 79 44 131 70 52 26 96 49 98 51 5 4 -319 424 -327 424 -4
-1 -60 -38 -124 -83z"/>
<path d="M5998 7018 c-9 -13 -82 -108 -162 -212 -81 -103 -146 -190 -144 -191
2 -2 50 -26 108 -55 58 -29 117 -61 131 -71 l25 -18 148 191 c81 104 149 195
152 202 4 11 -188 156 -228 171 -9 4 -21 -3 -30 -17z"/>
<path d="M4615 6332 c-16 -10 -136 -80 -266 -155 -461 -265 -1023 -613 -1478
-915 -304 -203 -290 -192 -275 -198 7 -3 58 -40 114 -82 57 -42 192 -142 301
-222 761 -558 1069 -787 1199 -894 60 -48 86 -65 88 -54 4 21 -64 229 -98 301
-15 32 -24 56 -20 55 4 -2 74 -79 156 -173 141 -162 622 -698 730 -814 30 -32
55 -52 62 -47 16 10 510 556 729 806 99 113 187 211 196 219 12 9 8 -5 -12
-50 -27 -59 -80 -216 -95 -282 -9 -36 -11 -37 134 78 63 51 192 148 285 217
94 68 382 279 640 469 259 189 511 374 562 409 51 36 92 68 93 71 0 9 -517
346 -835 544 -306 190 -725 442 -1021 613 l-211 122 -474 0 c-441 0 -476 -1
-504 -18z m1183 -525 c285 -196 725 -492 961 -646 l144 -95 -24 -19 c-39 -32
-194 -141 -519 -364 -168 -115 -458 -315 -645 -444 -428 -296 -582 -399 -595
-399 -6 0 -46 23 -88 52 -110 73 -1653 1135 -1677 1154 -20 15 -20 16 9 37 17
12 318 215 670 451 353 235 648 435 656 442 12 11 89 14 428 14 l413 0 267
-183z"/>
<path d="M5010 5673 c-52 -9 -127 -36 -187 -69 -234 -129 -360 -415 -295 -671
69 -274 277 -451 552 -469 179 -12 334 48 466 180 127 127 179 256 178 436 -2
167 -67 314 -192 431 -81 77 -163 123 -268 149 -72 19 -186 24 -254 13z m237
-325 c199 -93 240 -364 77 -508 -149 -130 -384 -83 -477 95 -14 27 -22 66 -25
121 -4 73 -1 88 22 140 41 89 98 140 189 170 57 19 153 11 214 -18z"/>
</g>
</svg>
